<svg width="120" height="30" viewBox="0 0 120 30" fill="none" xmlns="http://www.w3.org/2000/svg">
<g clip-path="url(#clip0_1_31)">
<path d="M17.4097 24.4896C17.3071 25.0638 16.8151 25.4046 16.0819 25.2816C10.8343 24.4098 5.86864 23.3766 0.676183 22.2228C0.213579 22.1189 -0.0684241 21.8309 0.0143767 21.4661C0.0251768 21.4175 0.0311769 21.3929 0.041977 21.3443C0.235179 20.4923 1.63079 20.4221 1.9416 19.0217C3.04981 14.0273 4.15802 9.03402 5.26623 4.04017C5.57703 2.63915 4.42802 1.99835 4.62122 1.14634C4.63202 1.09774 4.63802 1.07314 4.64882 1.02454C4.73162 0.659733 5.08563 0.516331 5.51343 0.611732C8.20386 1.21414 9.29647 1.49134 11.9977 2.02475C12.4273 2.10995 12.6931 2.38355 12.6211 2.75075C12.6115 2.79995 12.6067 2.82455 12.5971 2.87316C12.4303 3.73056 11.2225 3.82956 10.9411 5.23658C9.99068 9.98743 9.03967 14.7383 8.08926 19.4885C7.88706 20.4983 8.18466 21.5771 9.30487 21.7949C10.6753 22.0613 11.1061 22.1838 12.4789 22.4334C15.9529 23.0154 15.8005 18.1337 17.3317 18.3857C17.5142 18.4157 17.5844 18.4343 17.7668 18.4643C18.023 18.5147 18.2396 18.7703 18.1532 19.3091L17.4097 24.4896Z" fill="black"/>
<path d="M35.1576 26.8995C34.959 27.6945 33.0042 27.7323 31.2059 27.5421C29.2451 27.3351 28.3991 26.8539 28.4405 25.7253C27.5171 26.5299 26.0159 27.0789 23.8715 26.7951C20.395 26.3349 18.211 24.428 19.183 21.302C20.1364 18.236 23.2841 17.0738 26.2709 17.4722C27.5915 17.6486 28.5755 18.086 29.2391 18.6392C29.2493 18.6026 29.2541 18.584 29.2643 18.5474C29.8859 14.9041 30.1067 13.3279 28.4963 13.1191C26.3597 12.8419 26.0363 17.0444 23.2505 16.6388C21.9358 16.4474 21.3064 15.5215 21.673 14.3377C22.444 11.8483 25.7993 11.2903 28.9151 11.6569C32.5727 12.0877 35.3388 14.7937 34.833 18.6944C34.5474 20.9102 34.407 22.0178 34.1322 24.2336C33.8694 26.4333 35.3718 26.0433 35.1576 26.8995ZM28.3913 23.4836C28.4945 22.9166 28.5467 22.6328 28.6505 22.0658C28.9331 20.2094 28.3043 19.409 27.3863 19.292C26.4365 19.1708 25.5341 19.9034 25.1723 21.1508C24.5453 23.3126 24.7727 25.3052 26.0999 25.472C27.1679 25.6071 28.1045 24.5204 28.3913 23.4836Z" fill="black"/>
<path d="M55.7531 28.2646C55.7525 28.3144 55.7519 28.339 55.7507 28.3888C55.7441 28.7632 55.4033 28.9762 54.9323 28.9666C52.2377 28.9132 50.8906 28.8712 48.1972 28.756C47.692 28.7344 47.3992 28.5022 47.416 28.1284C47.4184 28.0786 47.4196 28.054 47.4214 28.0042C47.4622 27.1006 48.7828 26.7826 48.742 25.3449C48.7012 23.1081 48.682 21.9897 48.646 19.7529C48.6136 16.6611 48.0538 15.4844 46.6066 15.4118C45.1924 15.3404 44.4472 16.5135 44.3428 18.3195C44.1862 21.0351 44.1076 22.3923 43.951 25.1079C43.8682 26.5402 45.319 26.995 45.2716 27.8986C45.2692 27.9484 45.268 27.973 45.265 28.0228C45.2452 28.3966 44.9314 28.5994 44.4262 28.5712C41.5191 28.4104 40.0659 28.312 37.1619 28.0792C36.6579 28.039 36.3735 27.796 36.4041 27.4228C36.4083 27.373 36.4101 27.3484 36.4143 27.2986C36.4887 26.3968 37.9887 26.1418 38.0997 24.7113C38.2905 22.2609 38.3859 21.0357 38.5761 18.5853C38.6925 17.0925 36.9933 16.7673 37.0689 15.8661C37.0719 15.8289 37.0737 15.8103 37.0767 15.7731C37.1079 15.4004 37.4451 15.2408 37.9125 15.0596C39.7815 14.3474 40.7091 13.9838 42.5524 13.241C43.3762 12.8882 43.7572 13.442 43.7194 14.0642C43.684 14.6498 43.666 14.942 43.6306 15.5277C44.59 14.0858 46.2472 13.358 48.3364 13.4324C51.9347 13.5602 54.2639 16.6245 54.2879 20.1231C54.4085 22.2849 54.4709 23.3655 54.5981 25.5273C54.6707 26.965 55.7687 27.3598 55.7531 28.2646Z" fill="black"/>
<path d="M75.3554 28.0245C75.3524 27.9747 75.3506 27.9501 75.3476 27.9003C75.2918 26.9973 76.6047 26.5383 76.5099 25.1067C76.3527 22.7414 76.2747 21.5588 76.1174 19.1936C76.0226 17.762 74.6996 17.4092 74.6534 16.6622C74.6504 16.6124 74.6486 16.5878 74.6456 16.538C74.6246 16.1954 74.9054 16.022 75.3416 15.7754C77.2257 14.729 78.1593 14.1973 80.0091 13.1203C80.8659 12.6121 81.4491 13.0615 81.5001 13.6519C81.8187 17.3186 82.1367 20.9852 82.4553 24.6519C82.5795 26.0817 84.1143 26.3199 84.1971 27.2205C84.2019 27.2703 84.2037 27.2949 84.2085 27.3447C84.2427 27.7173 83.9277 27.9663 83.4237 28.0113C80.5365 28.2687 79.0911 28.3797 76.199 28.5663C75.695 28.5975 75.3788 28.3977 75.3554 28.0245ZM74.6648 8.69109C74.552 6.91688 75.8936 5.49186 78.0321 5.32806C80.1393 5.16606 81.6837 6.36967 81.8427 8.14089C81.9987 9.88031 80.6649 11.3827 78.5097 11.5483C76.3227 11.7157 74.7758 10.4341 74.6648 8.69109Z" fill="black"/>
<path d="M104.878 24.4261C104.887 24.4753 104.891 24.4999 104.899 24.5485C104.963 24.9175 104.667 25.1905 104.201 25.2697C101.537 25.7221 100.203 25.9327 97.5314 26.3239C97.0304 26.3971 96.6986 26.2243 96.6452 25.8535C96.638 25.8043 96.6343 25.7797 96.6278 25.7305C96.4993 24.8347 97.739 24.2761 97.43 22.8709C96.9716 20.6809 96.7436 19.5859 96.2899 17.3952C95.6797 14.364 94.9093 13.3128 93.4723 13.512C92.0677 13.707 91.5541 14.9982 91.7893 16.7922C92.1427 19.4893 92.3197 20.8375 92.6731 23.5345C92.8597 24.9571 94.3717 25.1323 94.4935 26.0293C94.5001 26.0785 94.5037 26.1031 94.5103 26.1523C94.5607 26.5231 94.2895 26.7811 93.7879 26.8477C90.8983 27.2335 89.4517 27.4081 86.5554 27.7226C86.0526 27.7772 85.728 27.5918 85.6884 27.2191C85.683 27.1699 85.6806 27.1447 85.6752 27.0955C85.5798 26.1955 87.0055 25.6651 86.8477 24.2389C86.577 21.7963 86.4414 20.5747 86.1708 18.1315C86.0058 16.6434 84.2766 16.6416 84.1824 15.7416C84.1782 15.7044 84.1764 15.6858 84.1728 15.6486C84.1338 15.2766 84.435 15.057 84.8604 14.7912C86.5633 13.7424 87.4075 13.2114 89.0803 12.1374C89.8243 11.637 90.3025 12.1092 90.3817 12.7284C90.4561 13.3098 90.4933 13.6008 90.5677 14.1828C91.2415 12.5874 92.7355 11.5626 94.8049 11.2446C98.3654 10.6974 101.235 13.2654 101.914 16.7034C102.438 18.8047 102.701 19.8547 103.231 21.9541C103.569 23.3521 104.725 23.5345 104.878 24.4261Z" fill="black"/>
<path d="M118.306 8.06116L118.335 8.17096C118.494 8.77517 117.352 9.57378 117.777 11.1944L119.67 18.4203C120.965 23.3655 118.294 26.6199 114.475 27.6202C110.353 28.6996 107.04 28.0414 106.471 25.8705C106.219 24.9087 106.597 23.6649 108.054 23.2833C111.021 22.5063 111.833 26.7267 114.1 26.1915C115.069 25.9671 115.675 24.6927 114.84 21.5055L114.725 21.0657C114.139 21.6303 113.317 22.0803 112.356 22.3323C109.059 23.1957 105.254 21.7851 104.117 17.4441C103.037 13.3226 105.45 9.75498 108.829 8.86937C110.176 8.51657 111.403 8.99717 112.303 9.40698C112.234 8.80817 112.595 8.00056 113.421 7.90156L117.342 7.40296C117.823 7.33635 118.184 7.59436 118.306 8.06116ZM114.027 18.4017L112.617 13.0166C112.156 11.258 110.695 9.93798 109.678 10.2044C108.606 10.4852 108.364 11.576 108.778 13.4936C109.128 15.281 111.313 20.9331 113.211 20.5533C113.987 20.3787 114.322 19.5279 114.027 18.4017Z" fill="black"/>
<path d="M73.9046 27.9978L73.9094 28.1226C73.9238 28.497 73.6496 28.7274 73.211 28.7442L68.7362 28.917C68.237 28.9362 67.9112 28.635 67.8932 28.1664L67.8824 27.8838C66.9758 28.797 65.6497 29.3508 64.1185 29.4102C60.3319 29.5566 56.6275 27.0048 56.4289 21.873C56.2482 17.2097 59.5993 13.9133 63.5443 13.7603C64.8589 13.7093 65.9341 13.9817 66.8018 14.5121L66.641 10.3511C66.584 8.87804 64.9177 8.75624 64.8829 7.84903L64.8793 7.75483C64.8661 7.41102 65.1331 7.05582 65.5663 6.91182L70.3916 5.2528C71.288 4.9372 71.7668 5.1052 71.7992 5.95121L72.5498 25.3536C72.605 26.7924 73.871 27.1212 73.9046 27.9978ZM67.2122 25.1202L66.9788 19.0811C66.9014 17.0783 65.4487 15.2231 64.0117 15.2783C62.4775 15.3377 61.6837 16.7159 61.6861 19.2245C61.6933 21.8556 62.9605 27.8238 65.3107 27.8274C66.3745 27.8172 67.2776 26.8122 67.2122 25.1202Z" fill="black"/>
</g>
<defs>
<clipPath id="clip0_1_31">
<rect width="120" height="30" fill="white"/>
</clipPath>
</defs>
</svg>
